<?xml version="1.0" encoding="utf-8"?>
<!-- Generator: Adobe Illustrator 16.0.2, SVG Export Plug-In . SVG Version: 6.00 Build 0)  -->
<!DOCTYPE svg PUBLIC "-//W3C//DTD SVG 1.1//EN" "http://www.w3.org/Graphics/SVG/1.1/DTD/svg11.dtd">
<svg version="1.1" id="圖層_1" xmlns="http://www.w3.org/2000/svg" xmlns:xlink="http://www.w3.org/1999/xlink" x="0px" y="0px"
	 width="480px" height="480px" viewBox="0 0 480 480" enable-background="new 0 0 480 480" xml:space="preserve">
<path display="none" d="M480,420.25C480,450,450.5,480,420.25,480h-360C30,480,0,450,0,420.25V60C0,30.25,30.125,0,60,0h360.25
	c30,0,59.75,30.25,59.75,60V420.25z"/>
<path d="M237.531,130.277l44.063-13.359c-13.282-12.499-28.439-23.203-45.469-32.109l-43.828,15.703
	C210.89,111.608,225.966,121.528,237.531,130.277z"/>
<path d="M357.063,130.277c18.75-10.155,35.545-22.654,50.391-37.5l-42.188-16.172c-15.783,13.125-34.219,25.781-55.313,37.969
	L357.063,130.277z"/>
<path d="M422.219,62.543l-23.438-32.109c-69.689,13.125-160.547,19.688-272.578,19.688c-24.375,0-50.782-0.312-79.219-0.938
	L61.75,85.277C200.969,84.655,321.123,77.074,422.219,62.543z"/>
<path d="M118,131.215l45.234-12.891c-12.971-12.656-26.953-22.419-41.953-29.297L76.75,103.559
	C88.469,109.652,102.216,118.874,118,131.215z"/>
<polygon points="85.422,171.527 396.906,171.527 396.906,213.48 439.563,213.48 439.563,136.137 42.063,136.137 42.063,212.777 
	85.422,212.777 "/>
<path d="M294.719,389.965c24.529-13.125,52.812-32.655,84.844-58.594v-33.984H206.828c5.699-5.405,13.312-13.207,22.839-23.397
	v-2.322h-53.028c-14.895,12.964-30.608,24.435-47.155,34.392c-6.877-4.53-14.063-10.155-21.563-16.875l-28.828,24.609
	c6.716,6.251,11.404,10.393,14.063,12.422c-12.813,7.814-31.563,16.406-56.25,25.781l25.313,33.281
	c23.906-10.155,46.015-20.859,66.328-32.109c19.373,13.908,38.749,26.016,58.125,36.328
	c-50.156,13.908-102.813,23.049-157.969,27.422l18.281,39.375c69.844-8.595,134.14-22.5,192.891-41.719
	c54.844,20.468,120.623,34.373,197.344,41.719l19.219-38.438C392.999,413.168,339.093,403.873,294.719,389.965z M239.406,372.152
	c-26.719-11.404-50.706-24.687-71.953-39.844h145.313C292.295,347.935,267.843,361.217,239.406,372.152z"/>
<path d="M250.334,254.333L170.667,254l-9.627,9.916h-53.688l63.957-69.582l109.565,0.283L290,264h-40L250.334,254.333z M250,237.333
	V214l-44.167,6.333l-25.079,17.05L250,237.333z"/>
<rect x="309.852" y="193.667" width="47.695" height="16.273"/>
<rect x="310" y="222.11" width="47.695" height="41.89"/>
</svg>
