<?xml version="1.0" encoding="iso-8859-1"?>
<!-- Generator: Adobe Illustrator 16.0.2, SVG Export Plug-In . SVG Version: 6.00 Build 0)  -->
<!DOCTYPE svg PUBLIC "-//W3C//DTD SVG 1.1 Tiny//EN" "http://www.w3.org/Graphics/SVG/1.1/DTD/svg11-tiny.dtd">
<svg version="1.1" baseProfile="tiny" id="&#x5716;&#x5C64;_1"
	 xmlns="http://www.w3.org/2000/svg" xmlns:xlink="http://www.w3.org/1999/xlink" x="0px" y="0px" width="480px" height="480px"
	 viewBox="0 0 480 480" xml:space="preserve">
<g id="&#x5716;&#x5C64;_1_1_">
	<path d="M411.428,0H68.571C34.286,0,0,34.286,0,68.571v342.856C0,445.715,34.286,480,68.571,480h342.856
		C445.715,480,480,445.715,480,411.428V68.571C480,34.286,445.715,0,411.428,0z M390,344.559l-84.853-84.854L192.01,372.842l0,0
		l-35.355,35.355l-84.852-84.852l35.355-35.355l113.137-113.138L135.441,90H390V344.559z"/>
</g>
<g id="&#x5716;&#x5C64;_2" display="none">
	
		<rect x="131.047" y="263.948" transform="matrix(-0.7071 0.7071 -0.7071 -0.7071 485.4529 466.8114)" display="inline" stroke="#000000" stroke-miterlimit="10" width="30" height="139.997"/>
	
		<rect x="173.471" y="221.53" transform="matrix(-0.7071 0.7071 -0.7071 -0.7071 527.8832 364.3987)" display="inline" stroke="#000000" stroke-miterlimit="10" width="29.999" height="139.999"/>
	
		<rect x="215.898" y="179.099" transform="matrix(-0.7071 0.7071 -0.7071 -0.7071 570.3063 261.9653)" display="inline" stroke="#000000" stroke-miterlimit="10" width="30" height="139.999"/>
</g>
</svg>
