<?xml version="1.0" encoding="iso-8859-1"?>
<!-- Generator: Adobe Illustrator 16.0.2, SVG Export Plug-In . SVG Version: 6.00 Build 0)  -->
<!DOCTYPE svg PUBLIC "-//W3C//DTD SVG 1.1 Tiny//EN" "http://www.w3.org/Graphics/SVG/1.1/DTD/svg11-tiny.dtd">
<svg version="1.1" baseProfile="tiny" id="&#x5716;&#x5C64;_1"
	 xmlns="http://www.w3.org/2000/svg" xmlns:xlink="http://www.w3.org/1999/xlink" x="0px" y="0px" width="480px" height="480px"
	 viewBox="0 0 480 480" xml:space="preserve">
<g id="&#x5716;&#x5C64;_1_1_">
	<path d="M411.428,0H68.571C34.286,0,0,34.286,0,68.571v342.856C0,445.715,34.286,480,68.571,480h342.856
		C445.715,480,480,445.715,480,411.428V68.571C480,34.286,445.715,0,411.428,0z M372.843,192.01L259.705,305.146L344.559,390H90
		V135.441l84.853,84.854L287.99,107.158h0.001l35.354-35.355l84.853,84.852L372.843,192.01z"/>
</g>
<g id="&#x5716;&#x5C64;_2" display="none">
	
		<rect x="318.955" y="76.049" transform="matrix(0.7071 -0.7071 0.7071 0.7071 -5.4584 278.918)" display="inline" stroke="#000000" stroke-miterlimit="10" width="30" height="139.998"/>
	
		<rect x="276.528" y="118.471" transform="matrix(0.7071 -0.7071 0.7071 0.7071 -47.8813 261.3461)" display="inline" stroke="#000000" stroke-miterlimit="10" width="29.999" height="139.999"/>
	
		<rect x="234.102" y="160.902" transform="matrix(0.7071 -0.7071 0.7071 0.7071 -90.3113 243.7635)" display="inline" stroke="#000000" stroke-miterlimit="10" width="30" height="139.998"/>
</g>
</svg>
