<?xml version="1.0" encoding="utf-8"?>
<!-- Generator: Adobe Illustrator 16.0.2, SVG Export Plug-In . SVG Version: 6.00 Build 0)  -->
<!DOCTYPE svg PUBLIC "-//W3C//DTD SVG 1.1//EN" "http://www.w3.org/Graphics/SVG/1.1/DTD/svg11.dtd">
<svg version="1.1" id="圖層_1" xmlns="http://www.w3.org/2000/svg" xmlns:xlink="http://www.w3.org/1999/xlink" x="0px" y="0px"
	 width="480px" height="480px" viewBox="0 0 480 480" enable-background="new 0 0 480 480" xml:space="preserve">
<path d="M422.066,346.067V133.936c0-0.04-0.002-0.079-0.002-0.119c-0.002-1.213-0.033-2.426-0.092-3.637
	c-0.03-0.608-0.087-1.209-0.13-1.813c-0.047-0.629-0.082-1.258-0.144-1.885c-0.074-0.757-0.175-1.505-0.271-2.254
	c-0.059-0.47-0.109-0.94-0.178-1.409c-0.119-0.81-0.265-1.612-0.408-2.415c-0.073-0.407-0.138-0.815-0.219-1.223
	c-0.159-0.814-0.344-1.618-0.529-2.422c-0.093-0.401-0.179-0.802-0.277-1.202c-0.194-0.779-0.409-1.549-0.626-2.319
	c-0.12-0.428-0.235-0.856-0.365-1.283c-0.216-0.717-0.451-1.427-0.688-2.136c-0.16-0.48-0.317-0.963-0.487-1.44
	c-0.228-0.636-0.47-1.263-0.713-1.892c-0.212-0.547-0.422-1.094-0.646-1.636c-0.228-0.547-0.468-1.086-0.707-1.627
	c-0.27-0.611-0.54-1.224-0.827-1.83c-0.22-0.463-0.451-0.919-0.68-1.376c-0.333-0.664-0.664-1.327-1.017-1.983
	c-0.213-0.396-0.438-0.787-0.658-1.181c-0.389-0.693-0.778-1.386-1.19-2.069c-0.214-0.355-0.44-0.704-0.66-1.058
	c-0.435-0.695-0.871-1.39-1.329-2.073c-0.236-0.35-0.483-0.691-0.724-1.038c-0.461-0.663-0.922-1.327-1.407-1.979
	c-0.288-0.388-0.592-0.764-0.888-1.145c-0.456-0.591-0.907-1.183-1.383-1.762c-0.409-0.498-0.838-0.979-1.26-1.467
	c-0.389-0.448-0.764-0.902-1.164-1.344c-1.684-1.858-3.458-3.632-5.315-5.315c-0.441-0.399-0.896-0.775-1.344-1.165
	c-0.488-0.421-0.97-0.85-1.467-1.259c-0.58-0.477-1.172-0.927-1.762-1.384c-0.382-0.295-0.757-0.599-1.144-0.887
	c-0.652-0.485-1.316-0.945-1.979-1.407c-0.347-0.24-0.688-0.488-1.038-0.723c-0.684-0.459-1.379-0.896-2.074-1.33
	c-0.353-0.22-0.701-0.446-1.057-0.661c-0.684-0.411-1.377-0.802-2.069-1.189c-0.394-0.221-0.784-0.445-1.182-0.658
	c-0.655-0.353-1.318-0.685-1.981-1.016c-0.459-0.229-0.914-0.461-1.377-0.681c-0.606-0.287-1.218-0.557-1.83-0.827
	c-0.541-0.239-1.08-0.479-1.626-0.707c-0.544-0.225-1.091-0.434-1.638-0.646c-0.627-0.242-1.255-0.486-1.891-0.713
	c-0.479-0.17-0.959-0.327-1.44-0.487c-0.71-0.237-1.418-0.472-2.136-0.688c-0.427-0.13-0.855-0.245-1.283-0.365
	c-0.771-0.218-1.54-0.432-2.319-0.626c-0.4-0.099-0.801-0.185-1.201-0.277c-0.805-0.186-1.609-0.37-2.423-0.529
	c-0.406-0.08-0.815-0.146-1.224-0.219c-0.802-0.144-1.604-0.288-2.414-0.407c-0.47-0.069-0.938-0.119-1.409-0.18
	c-0.749-0.096-1.498-0.196-2.254-0.271c-0.628-0.062-1.256-0.097-1.885-0.143c-0.604-0.044-1.204-0.101-1.813-0.13
	c-1.212-0.061-2.425-0.091-3.638-0.092c-0.04,0-0.079-0.004-0.119-0.004H133.935c-41.973,0-76,34.027-75.999,76.001
	c0,41.974,34.026,76,76,76h28.651l-82.392,82.393c-29.681,29.681-29.681,77.8,0,107.479s77.801,29.68,107.48,0l82.391-82.392v28.651
	c0,20.987,8.508,39.987,22.26,53.74c13.754,13.754,32.754,22.261,53.74,22.261C388.041,422.068,422.066,388.041,422.066,346.067z
	 M346.066,378.067c-8.836,0-16.836-3.581-22.627-9.372s-9.373-13.791-9.371-22.628l-0.002-134.877L156.563,368.695
	c-12.497,12.496-32.758,12.496-45.255,0c-12.497-12.497-12.497-32.758,0-45.255l157.504-157.505H133.936
	c-17.674,0-32.001-14.326-32-32c-0.001-17.673,14.327-32,32-32h212.132c0.04,0,0.08,0.002,0.12,0.003
	c0.486,0.001,0.972,0.013,1.457,0.036c0.267,0.014,0.53,0.038,0.795,0.058c0.255,0.019,0.51,0.032,0.764,0.058
	c0.325,0.031,0.646,0.075,0.968,0.116c0.191,0.024,0.383,0.045,0.574,0.073c0.345,0.051,0.688,0.111,1.029,0.173
	c0.168,0.031,0.336,0.059,0.503,0.091c0.347,0.068,0.689,0.146,1.031,0.226c0.164,0.037,0.329,0.072,0.493,0.113
	c0.333,0.083,0.662,0.175,0.991,0.268c0.175,0.05,0.351,0.097,0.524,0.148c0.307,0.093,0.609,0.193,0.911,0.295
	c0.199,0.065,0.398,0.131,0.597,0.202c0.271,0.096,0.54,0.2,0.808,0.304c0.226,0.088,0.451,0.174,0.676,0.268
	c0.235,0.097,0.468,0.2,0.7,0.304c0.253,0.111,0.505,0.223,0.754,0.341c0.201,0.095,0.398,0.195,0.597,0.295
	c0.274,0.137,0.549,0.274,0.819,0.419c0.173,0.093,0.343,0.19,0.513,0.287c0.286,0.16,0.573,0.32,0.854,0.49
	c0.157,0.096,0.312,0.194,0.467,0.292c0.286,0.18,0.571,0.358,0.853,0.547c0.155,0.104,0.306,0.213,0.459,0.319
	c0.271,0.189,0.544,0.379,0.812,0.577c0.173,0.129,0.342,0.264,0.512,0.396c0.238,0.185,0.479,0.367,0.712,0.559
	c0.225,0.186,0.443,0.379,0.663,0.57c0.174,0.15,0.351,0.296,0.521,0.451c0.786,0.711,1.535,1.46,2.246,2.245
	c0.153,0.169,0.298,0.346,0.448,0.519c0.192,0.221,0.386,0.439,0.572,0.666c0.191,0.232,0.373,0.472,0.557,0.708
	c0.133,0.172,0.269,0.341,0.398,0.515c0.198,0.268,0.387,0.538,0.575,0.808c0.107,0.155,0.218,0.307,0.322,0.464
	c0.188,0.28,0.366,0.563,0.544,0.848c0.098,0.157,0.199,0.313,0.294,0.472c0.169,0.28,0.329,0.565,0.489,0.851
	c0.097,0.172,0.195,0.343,0.288,0.517c0.145,0.27,0.281,0.543,0.418,0.816c0.1,0.199,0.201,0.397,0.297,0.599
	c0.118,0.249,0.229,0.501,0.339,0.751c0.104,0.234,0.208,0.467,0.306,0.703c0.093,0.224,0.178,0.449,0.266,0.674
	c0.104,0.27,0.209,0.538,0.306,0.811c0.07,0.197,0.135,0.396,0.201,0.595c0.102,0.302,0.201,0.604,0.294,0.911
	c0.053,0.175,0.101,0.353,0.15,0.529c0.093,0.327,0.184,0.654,0.267,0.985c0.041,0.167,0.076,0.334,0.115,0.501
	c0.079,0.34,0.156,0.68,0.223,1.022c0.035,0.173,0.063,0.346,0.093,0.519c0.061,0.337,0.122,0.674,0.172,1.014
	c0.029,0.201,0.051,0.4,0.076,0.602c0.04,0.312,0.082,0.623,0.112,0.938c0.028,0.275,0.044,0.551,0.063,0.825
	c0.018,0.244,0.041,0.486,0.053,0.731c0.025,0.53,0.039,1.061,0.039,1.593v212.124C378.066,363.74,363.74,378.067,346.066,378.067z"
	/>
</svg>
