<?xml version="1.0" encoding="utf-8"?>
<!-- Generator: Adobe Illustrator 16.0.2, SVG Export Plug-In . SVG Version: 6.00 Build 0)  -->
<!DOCTYPE svg PUBLIC "-//W3C//DTD SVG 1.1//EN" "http://www.w3.org/Graphics/SVG/1.1/DTD/svg11.dtd">
<svg version="1.1" id="圖層_1" xmlns="http://www.w3.org/2000/svg" xmlns:xlink="http://www.w3.org/1999/xlink" x="0px" y="0px"
	 width="480px" height="480px" viewBox="0 0 480 480" enable-background="new 0 0 480 480" xml:space="preserve">
<path display="none" d="M443.74,186.26l-150-150c-0.028-0.028-0.058-0.054-0.086-0.082c-0.859-0.856-1.738-1.692-2.637-2.507
	c-0.451-0.409-0.916-0.794-1.374-1.19c-0.478-0.412-0.947-0.832-1.435-1.231c-0.587-0.483-1.188-0.94-1.785-1.403
	c-0.374-0.29-0.742-0.587-1.122-0.87c-0.657-0.489-1.327-0.954-1.996-1.419c-0.34-0.236-0.675-0.479-1.02-0.71
	c-0.688-0.462-1.388-0.901-2.087-1.338c-0.349-0.218-0.693-0.441-1.046-0.653c-0.688-0.415-1.385-0.807-2.083-1.198
	c-0.388-0.217-0.772-0.439-1.165-0.649c-0.66-0.354-1.328-0.689-1.997-1.023c-0.453-0.227-0.905-0.457-1.363-0.674
	c-0.61-0.289-1.226-0.561-1.842-0.833c-0.536-0.237-1.071-0.476-1.613-0.701c-0.548-0.226-1.099-0.437-1.65-0.65
	c-0.623-0.242-1.247-0.483-1.879-0.709c-0.482-0.172-0.969-0.33-1.454-0.492c-0.704-0.235-1.407-0.469-2.12-0.684
	c-0.432-0.13-0.867-0.247-1.301-0.37c-0.765-0.216-1.53-0.429-2.305-0.622c-0.403-0.1-0.81-0.187-1.215-0.281
	c-0.799-0.185-1.599-0.367-2.406-0.526c-0.414-0.081-0.83-0.147-1.245-0.222c-0.795-0.143-1.591-0.286-2.395-0.404
	c-0.478-0.07-0.958-0.121-1.437-0.182c-0.74-0.094-1.478-0.194-2.224-0.267c-0.642-0.063-1.285-0.1-1.928-0.146
	c-0.592-0.042-1.179-0.098-1.774-0.127c-2.504-0.124-5.012-0.124-7.516,0c-0.595,0.029-1.183,0.084-1.774,0.127
	c-0.643,0.046-1.286,0.083-1.927,0.146c-0.747,0.073-1.484,0.173-2.224,0.267c-0.479,0.061-0.958,0.112-1.436,0.182
	c-0.804,0.118-1.6,0.262-2.396,0.404c-0.415,0.075-0.831,0.141-1.244,0.222c-0.809,0.159-1.608,0.342-2.407,0.526
	c-0.405,0.094-0.812,0.181-1.215,0.281c-0.774,0.192-1.54,0.406-2.304,0.622c-0.434,0.123-0.869,0.239-1.301,0.37
	c-0.712,0.215-1.416,0.449-2.119,0.684c-0.486,0.162-0.972,0.32-1.455,0.492c-0.632,0.226-1.255,0.467-1.879,0.709
	c-0.551,0.213-1.103,0.424-1.649,0.65c-0.542,0.225-1.078,0.464-1.614,0.701c-0.616,0.272-1.231,0.543-1.841,0.833
	c-0.459,0.218-0.91,0.448-1.364,0.674c-0.669,0.333-1.336,0.668-1.997,1.023c-0.393,0.21-0.777,0.432-1.166,0.649
	c-0.698,0.391-1.395,0.783-2.083,1.198c-0.353,0.212-0.697,0.436-1.045,0.653c-0.7,0.437-1.399,0.876-2.087,1.338
	c-0.344,0.231-0.679,0.474-1.02,0.71c-0.669,0.465-1.338,0.93-1.996,1.419c-0.38,0.283-0.748,0.58-1.123,0.87
	c-0.598,0.462-1.198,0.92-1.785,1.403c-0.487,0.4-0.957,0.819-1.434,1.231c-0.458,0.396-0.923,0.781-1.374,1.19
	c-0.899,0.815-1.778,1.65-2.637,2.507c-0.028,0.028-0.058,0.054-0.086,0.082l-150,150c-29.68,29.68-29.68,77.801,0,107.48
	s77.801,29.68,107.48,0L164,273.48V390c0,41.974,34.026,76,76,76s76-34.026,76-76V273.48l20.26,20.26
	C351.1,308.58,370.55,316,390,316s38.9-7.42,53.74-22.26C473.42,264.061,473.42,215.94,443.74,186.26z"/>
<path d="M412.627,217.372L262.633,67.378c-0.376-0.376-0.761-0.741-1.154-1.098c-0.182-0.165-0.369-0.32-0.555-0.48
	c-0.208-0.18-0.414-0.363-0.628-0.539c-0.244-0.201-0.494-0.392-0.743-0.584c-0.16-0.124-0.316-0.25-0.479-0.371
	c-0.276-0.205-0.558-0.4-0.839-0.596c-0.144-0.101-0.285-0.203-0.432-0.301c-0.29-0.195-0.585-0.381-0.881-0.565
	c-0.146-0.091-0.289-0.184-0.436-0.272c-0.293-0.176-0.589-0.343-0.886-0.509c-0.16-0.09-0.319-0.182-0.48-0.268
	c-0.282-0.151-0.566-0.295-0.852-0.437c-0.188-0.094-0.374-0.188-0.563-0.278c-0.261-0.124-0.524-0.24-0.789-0.356
	c-0.221-0.098-0.44-0.196-0.664-0.289c-0.236-0.098-0.475-0.189-0.713-0.281c-0.256-0.099-0.512-0.198-0.771-0.291
	c-0.21-0.075-0.422-0.144-0.633-0.214c-0.29-0.097-0.58-0.193-0.873-0.282c-0.188-0.057-0.379-0.107-0.569-0.161
	c-0.314-0.089-0.629-0.177-0.947-0.256c-0.18-0.045-0.36-0.083-0.541-0.125c-0.327-0.075-0.653-0.149-0.984-0.215
	c-0.185-0.037-0.37-0.066-0.556-0.1c-0.324-0.058-0.648-0.116-0.978-0.165c-0.215-0.031-0.431-0.055-0.646-0.082
	c-0.297-0.037-0.594-0.078-0.894-0.107c-0.292-0.028-0.584-0.046-0.876-0.066c-0.229-0.016-0.455-0.038-0.684-0.049
	c-1.058-0.053-2.117-0.053-3.174,0c-0.231,0.011-0.458,0.033-0.688,0.049c-0.291,0.021-0.582,0.038-0.872,0.066
	c-0.301,0.029-0.6,0.07-0.898,0.108c-0.214,0.026-0.429,0.05-0.643,0.081c-0.33,0.049-0.655,0.107-0.982,0.166
	c-0.183,0.033-0.367,0.063-0.55,0.099c-0.333,0.065-0.661,0.141-0.99,0.216c-0.179,0.041-0.358,0.08-0.536,0.124
	c-0.32,0.079-0.636,0.168-0.951,0.257c-0.188,0.053-0.378,0.104-0.565,0.16c-0.294,0.089-0.585,0.186-0.876,0.283
	c-0.21,0.069-0.421,0.138-0.63,0.213c-0.26,0.093-0.517,0.192-0.774,0.292c-0.237,0.092-0.475,0.183-0.71,0.28
	c-0.224,0.093-0.445,0.191-0.667,0.289c-0.263,0.116-0.526,0.232-0.787,0.356c-0.19,0.09-0.376,0.185-0.564,0.278
	c-0.285,0.143-0.57,0.285-0.853,0.437c-0.16,0.086-0.317,0.177-0.476,0.266c-0.298,0.167-0.596,0.335-0.891,0.512
	c-0.145,0.087-0.286,0.179-0.428,0.269c-0.298,0.186-0.596,0.373-0.889,0.569c-0.142,0.096-0.279,0.195-0.419,0.292
	c-0.285,0.198-0.571,0.397-0.851,0.605c-0.155,0.115-0.304,0.236-0.457,0.354c-0.256,0.198-0.514,0.395-0.766,0.602
	c-0.198,0.162-0.388,0.333-0.582,0.5c-0.201,0.173-0.404,0.342-0.602,0.521c-0.36,0.327-0.711,0.662-1.056,1.005
	c-0.029,0.028-0.059,0.055-0.088,0.083l-150,150c-12.497,12.497-12.497,32.759,0,45.255c12.497,12.498,32.758,12.498,45.255,0
	L208,167.255V390c0,17.673,14.327,32,32,32c17.672,0,32-14.327,32-32V167.255l95.373,95.372C373.621,268.876,381.811,272,390,272
	s16.379-3.124,22.627-9.373C425.124,250.131,425.124,229.869,412.627,217.372z"/>
</svg>
