<?xml version="1.0" encoding="utf-8"?>
<!-- Generator: Adobe Illustrator 16.0.2, SVG Export Plug-In . SVG Version: 6.00 Build 0)  -->
<!DOCTYPE svg PUBLIC "-//W3C//DTD SVG 1.1//EN" "http://www.w3.org/Graphics/SVG/1.1/DTD/svg11.dtd">
<svg version="1.1" id="圖層_1" xmlns="http://www.w3.org/2000/svg" xmlns:xlink="http://www.w3.org/1999/xlink" x="0px" y="0px"
	 width="480px" height="480px" viewBox="0 0 480 480" enable-background="new 0 0 480 480" xml:space="preserve">
<path d="M36.259,293.742l150,150c0.028,0.028,0.058,0.054,0.086,0.082c0.859,0.856,1.738,1.692,2.637,2.507
	c0.451,0.409,0.916,0.794,1.374,1.19c0.478,0.412,0.947,0.831,1.435,1.231c0.587,0.482,1.188,0.94,1.785,1.402
	c0.374,0.29,0.742,0.587,1.122,0.87c0.657,0.488,1.327,0.953,1.996,1.419c0.34,0.236,0.675,0.479,1.02,0.71
	c0.688,0.463,1.388,0.901,2.087,1.339c0.349,0.218,0.693,0.44,1.046,0.653c0.688,0.414,1.385,0.807,2.083,1.197
	c0.388,0.218,0.772,0.439,1.165,0.649c0.66,0.354,1.328,0.689,1.997,1.023c0.453,0.227,0.905,0.456,1.363,0.674
	c0.61,0.289,1.226,0.561,1.842,0.833c0.536,0.237,1.071,0.476,1.613,0.701c0.548,0.226,1.099,0.437,1.65,0.65
	c0.623,0.241,1.247,0.483,1.879,0.709c0.482,0.172,0.969,0.33,1.454,0.492c0.704,0.234,1.407,0.469,2.12,0.684
	c0.432,0.13,0.867,0.247,1.301,0.369c0.765,0.216,1.53,0.43,2.305,0.622c0.403,0.1,0.81,0.187,1.215,0.28
	c0.799,0.185,1.599,0.367,2.406,0.526c0.414,0.081,0.83,0.147,1.245,0.223c0.795,0.143,1.591,0.286,2.395,0.404
	c0.478,0.07,0.958,0.121,1.437,0.182c0.74,0.095,1.478,0.194,2.224,0.268c0.642,0.063,1.285,0.1,1.928,0.146
	c0.592,0.042,1.179,0.098,1.774,0.127c2.504,0.123,5.012,0.123,7.516,0c0.595-0.029,1.183-0.085,1.774-0.127
	c0.643-0.047,1.286-0.084,1.927-0.146c0.747-0.073,1.484-0.173,2.225-0.268c0.479-0.061,0.958-0.111,1.436-0.182
	c0.805-0.118,1.6-0.262,2.396-0.404c0.415-0.075,0.831-0.142,1.244-0.223c0.809-0.159,1.608-0.342,2.407-0.526
	c0.405-0.094,0.812-0.181,1.215-0.28c0.774-0.192,1.54-0.406,2.305-0.622c0.434-0.122,0.869-0.239,1.301-0.369
	c0.713-0.215,1.416-0.449,2.119-0.684c0.486-0.162,0.973-0.32,1.455-0.492c0.632-0.226,1.255-0.468,1.879-0.709
	c0.552-0.214,1.103-0.425,1.649-0.65c0.543-0.226,1.078-0.464,1.614-0.701c0.615-0.272,1.231-0.544,1.841-0.833
	c0.459-0.218,0.91-0.447,1.364-0.674c0.669-0.334,1.336-0.669,1.997-1.023c0.393-0.21,0.777-0.432,1.165-0.649
	c0.698-0.391,1.395-0.783,2.083-1.197c0.353-0.213,0.696-0.436,1.045-0.653c0.7-0.438,1.399-0.876,2.088-1.339
	c0.344-0.23,0.679-0.474,1.02-0.71c0.669-0.466,1.338-0.931,1.995-1.419c0.381-0.283,0.748-0.58,1.123-0.87
	c0.598-0.462,1.198-0.92,1.785-1.402c0.487-0.4,0.957-0.819,1.434-1.231c0.459-0.396,0.923-0.781,1.374-1.19
	c0.899-0.814,1.778-1.65,2.637-2.507c0.028-0.028,0.059-0.054,0.087-0.082l150-150c29.68-29.68,29.68-77.801-0.001-107.48
	c-29.68-29.68-77.801-29.68-107.48,0l-20.26,20.26V90.002c0-41.975-34.025-76-76-76c-41.974,0-76,34.026-76,76v116.52l-20.26-20.26
	c-14.84-14.84-34.29-22.26-53.74-22.26s-38.9,7.42-53.74,22.26C6.58,215.941,6.58,264.063,36.259,293.742z M67.373,217.375
	c6.248-6.249,14.438-9.373,22.627-9.373s16.379,3.124,22.627,9.373L208,312.747V90.002c0-17.673,14.327-32,32-32
	c17.673,0,32,14.326,32,32L272,312.747l95.372-95.372c12.497-12.498,32.758-12.498,45.255,0c12.497,12.496,12.497,32.758,0,45.255
	l-150,150c-0.028,0.028-0.059,0.055-0.088,0.083c-0.345,0.343-0.696,0.678-1.056,1.005c-0.198,0.179-0.401,0.348-0.603,0.521
	c-0.193,0.167-0.384,0.338-0.581,0.5c-0.252,0.207-0.51,0.403-0.767,0.602c-0.152,0.118-0.302,0.239-0.457,0.354
	c-0.28,0.208-0.565,0.407-0.851,0.605c-0.141,0.097-0.278,0.196-0.42,0.292c-0.293,0.196-0.591,0.384-0.889,0.569
	c-0.143,0.09-0.284,0.182-0.429,0.269c-0.294,0.177-0.592,0.345-0.891,0.512c-0.158,0.089-0.315,0.18-0.476,0.266
	c-0.282,0.151-0.567,0.294-0.853,0.437c-0.188,0.094-0.374,0.188-0.564,0.278c-0.26,0.124-0.523,0.24-0.786,0.356
	c-0.222,0.098-0.442,0.196-0.667,0.289c-0.235,0.098-0.473,0.188-0.71,0.28c-0.258,0.1-0.515,0.199-0.774,0.292
	c-0.209,0.075-0.42,0.144-0.63,0.213c-0.291,0.098-0.582,0.194-0.876,0.283c-0.188,0.057-0.377,0.107-0.565,0.16
	c-0.315,0.089-0.632,0.178-0.951,0.257c-0.179,0.044-0.357,0.083-0.536,0.124c-0.329,0.075-0.657,0.15-0.99,0.216
	c-0.183,0.036-0.366,0.065-0.55,0.099c-0.326,0.059-0.652,0.117-0.981,0.166c-0.214,0.031-0.429,0.055-0.643,0.081
	c-0.299,0.038-0.598,0.079-0.898,0.108c-0.29,0.028-0.581,0.046-0.872,0.066c-0.229,0.016-0.457,0.038-0.688,0.049
	c-1.058,0.053-2.117,0.053-3.175,0c-0.229-0.011-0.455-0.033-0.684-0.049c-0.292-0.021-0.584-0.038-0.876-0.066
	c-0.3-0.029-0.597-0.07-0.894-0.107c-0.216-0.027-0.432-0.051-0.646-0.082c-0.329-0.049-0.653-0.107-0.978-0.165
	c-0.186-0.033-0.371-0.063-0.556-0.1c-0.331-0.065-0.657-0.14-0.984-0.215c-0.181-0.042-0.361-0.08-0.541-0.125
	c-0.318-0.079-0.633-0.167-0.947-0.256c-0.19-0.054-0.381-0.104-0.569-0.161c-0.293-0.089-0.583-0.186-0.873-0.282
	c-0.211-0.07-0.423-0.139-0.633-0.214c-0.26-0.093-0.516-0.192-0.771-0.291c-0.238-0.092-0.477-0.184-0.713-0.281
	c-0.224-0.093-0.443-0.191-0.664-0.289c-0.265-0.116-0.528-0.232-0.789-0.356c-0.189-0.09-0.376-0.185-0.563-0.278
	c-0.285-0.142-0.569-0.285-0.852-0.437c-0.161-0.086-0.32-0.178-0.48-0.268c-0.297-0.166-0.593-0.333-0.886-0.509
	c-0.146-0.089-0.29-0.182-0.436-0.272c-0.296-0.185-0.591-0.37-0.881-0.565c-0.146-0.098-0.288-0.2-0.432-0.301
	c-0.281-0.195-0.563-0.391-0.839-0.596c-0.162-0.121-0.318-0.247-0.479-0.371c-0.249-0.192-0.499-0.383-0.743-0.584
	c-0.214-0.176-0.42-0.359-0.628-0.539c-0.186-0.16-0.373-0.315-0.555-0.48c-0.394-0.356-0.778-0.722-1.154-1.098L67.373,262.63
	C54.875,250.133,54.875,229.871,67.373,217.375z"/>
</svg>
