<?xml version="1.0" encoding="utf-8"?>
<!-- Generator: Adobe Illustrator 16.0.2, SVG Export Plug-In . SVG Version: 6.00 Build 0)  -->
<!DOCTYPE svg PUBLIC "-//W3C//DTD SVG 1.1//EN" "http://www.w3.org/Graphics/SVG/1.1/DTD/svg11.dtd">
<svg version="1.1" id="圖層_1" xmlns="http://www.w3.org/2000/svg" xmlns:xlink="http://www.w3.org/1999/xlink" x="0px" y="0px"
	 width="480px" height="480px" viewBox="0 0 480 480" enable-background="new 0 0 480 480" xml:space="preserve">
<path display="none" d="M443.74,186.26l-150-150c-0.028-0.028-0.058-0.054-0.086-0.082c-0.859-0.856-1.738-1.692-2.637-2.507
	c-0.451-0.409-0.916-0.794-1.374-1.19c-0.478-0.412-0.947-0.832-1.435-1.231c-0.587-0.483-1.188-0.94-1.785-1.403
	c-0.374-0.29-0.742-0.587-1.122-0.87c-0.657-0.489-1.327-0.954-1.996-1.419c-0.34-0.236-0.675-0.479-1.02-0.71
	c-0.688-0.462-1.388-0.901-2.087-1.338c-0.349-0.218-0.693-0.441-1.046-0.653c-0.688-0.415-1.385-0.807-2.083-1.198
	c-0.388-0.217-0.772-0.439-1.165-0.649c-0.66-0.354-1.328-0.689-1.997-1.023c-0.453-0.227-0.905-0.457-1.363-0.674
	c-0.61-0.289-1.226-0.561-1.842-0.833c-0.536-0.237-1.071-0.476-1.613-0.701c-0.548-0.226-1.099-0.437-1.65-0.65
	c-0.623-0.242-1.247-0.483-1.879-0.709c-0.482-0.172-0.969-0.33-1.454-0.492c-0.704-0.235-1.407-0.469-2.12-0.684
	c-0.432-0.13-0.867-0.247-1.301-0.37c-0.765-0.216-1.53-0.429-2.305-0.622c-0.403-0.1-0.81-0.187-1.215-0.281
	c-0.799-0.185-1.599-0.367-2.406-0.526c-0.414-0.081-0.83-0.147-1.245-0.222c-0.795-0.143-1.591-0.286-2.395-0.404
	c-0.478-0.07-0.958-0.121-1.437-0.182c-0.74-0.094-1.478-0.194-2.224-0.267c-0.642-0.063-1.285-0.1-1.928-0.146
	c-0.592-0.042-1.179-0.098-1.774-0.127c-2.504-0.124-5.012-0.124-7.516,0c-0.595,0.029-1.183,0.084-1.774,0.127
	c-0.643,0.046-1.286,0.083-1.927,0.146c-0.747,0.073-1.484,0.173-2.224,0.267c-0.479,0.061-0.958,0.112-1.436,0.182
	c-0.804,0.118-1.6,0.262-2.396,0.404c-0.415,0.075-0.831,0.141-1.244,0.222c-0.809,0.159-1.608,0.342-2.407,0.526
	c-0.405,0.094-0.812,0.181-1.215,0.281c-0.774,0.192-1.54,0.406-2.304,0.622c-0.434,0.123-0.869,0.239-1.301,0.37
	c-0.712,0.215-1.416,0.449-2.119,0.684c-0.486,0.162-0.972,0.32-1.455,0.492c-0.632,0.226-1.255,0.467-1.879,0.709
	c-0.551,0.213-1.103,0.424-1.649,0.65c-0.542,0.225-1.078,0.464-1.614,0.701c-0.616,0.272-1.231,0.543-1.841,0.833
	c-0.459,0.218-0.91,0.448-1.364,0.674c-0.669,0.333-1.336,0.668-1.997,1.023c-0.393,0.21-0.777,0.432-1.166,0.649
	c-0.698,0.391-1.395,0.783-2.083,1.198c-0.353,0.212-0.697,0.436-1.045,0.653c-0.7,0.437-1.399,0.876-2.087,1.338
	c-0.344,0.231-0.679,0.474-1.02,0.71c-0.669,0.465-1.338,0.93-1.996,1.419c-0.38,0.283-0.748,0.58-1.123,0.87
	c-0.598,0.462-1.198,0.92-1.785,1.403c-0.487,0.4-0.957,0.819-1.434,1.231c-0.458,0.396-0.923,0.781-1.374,1.19
	c-0.899,0.815-1.778,1.65-2.637,2.507c-0.028,0.028-0.058,0.054-0.086,0.082l-150,150c-29.68,29.68-29.68,77.801,0,107.48
	s77.801,29.68,107.48,0L164,273.48V390c0,41.974,34.026,76,76,76s76-34.026,76-76V273.48l20.26,20.26
	C351.1,308.58,370.55,316,390,316s38.9-7.42,53.74-22.26C473.42,264.061,473.42,215.94,443.74,186.26z"/>
<path d="M133.935,378.066h212.124c0.531,0,1.062-0.015,1.592-0.04c0.246-0.012,0.488-0.035,0.732-0.053
	c0.274-0.021,0.55-0.036,0.825-0.063c0.314-0.03,0.626-0.072,0.938-0.112c0.201-0.025,0.4-0.047,0.601-0.076
	c0.341-0.05,0.678-0.11,1.015-0.172c0.173-0.03,0.345-0.058,0.518-0.092c0.344-0.067,0.684-0.145,1.022-0.224
	c0.168-0.038,0.335-0.074,0.501-0.115c0.332-0.083,0.659-0.174,0.986-0.267c0.177-0.05,0.354-0.097,0.529-0.15
	c0.306-0.093,0.608-0.192,0.91-0.293c0.199-0.066,0.397-0.132,0.596-0.202c0.271-0.097,0.54-0.201,0.81-0.306
	c0.226-0.087,0.45-0.173,0.674-0.266c0.236-0.098,0.47-0.201,0.703-0.305c0.251-0.111,0.502-0.222,0.751-0.34
	c0.202-0.096,0.4-0.197,0.6-0.296c0.273-0.137,0.547-0.273,0.816-0.418c0.174-0.094,0.344-0.192,0.517-0.289
	c0.285-0.159,0.569-0.319,0.851-0.488c0.159-0.096,0.313-0.196,0.471-0.295c0.285-0.178,0.568-0.356,0.849-0.544
	c0.156-0.104,0.309-0.215,0.463-0.322c0.271-0.188,0.541-0.377,0.808-0.574c0.175-0.13,0.344-0.267,0.516-0.399
	c0.236-0.184,0.475-0.365,0.708-0.556c0.227-0.187,0.445-0.381,0.666-0.573c0.173-0.15,0.349-0.295,0.518-0.448
	c0.785-0.711,1.534-1.46,2.245-2.245c0.155-0.171,0.301-0.348,0.452-0.521c0.191-0.221,0.385-0.438,0.569-0.664
	c0.192-0.233,0.374-0.474,0.559-0.712c0.133-0.17,0.268-0.338,0.397-0.512c0.198-0.267,0.387-0.539,0.576-0.812
	c0.106-0.153,0.216-0.304,0.319-0.458c0.189-0.282,0.368-0.567,0.548-0.853c0.097-0.155,0.195-0.31,0.291-0.467
	c0.17-0.282,0.331-0.568,0.491-0.854c0.096-0.171,0.193-0.341,0.286-0.513c0.146-0.271,0.282-0.545,0.419-0.82
	c0.1-0.197,0.2-0.395,0.295-0.596c0.118-0.249,0.229-0.501,0.342-0.754c0.103-0.232,0.206-0.465,0.304-0.7
	c0.093-0.225,0.18-0.45,0.267-0.676c0.104-0.269,0.208-0.537,0.304-0.809c0.071-0.198,0.137-0.396,0.203-0.596
	c0.101-0.303,0.201-0.604,0.294-0.911c0.053-0.175,0.1-0.35,0.148-0.524c0.093-0.329,0.185-0.659,0.268-0.991
	c0.041-0.164,0.076-0.329,0.113-0.493c0.08-0.342,0.157-0.686,0.226-1.031c0.033-0.168,0.06-0.336,0.091-0.504
	c0.062-0.342,0.122-0.684,0.174-1.029c0.028-0.191,0.048-0.383,0.072-0.573c0.041-0.322,0.085-0.644,0.116-0.968
	c0.025-0.254,0.039-0.51,0.058-0.765c0.021-0.265,0.044-0.527,0.058-0.794c0.023-0.485,0.035-0.971,0.036-1.457
	c0.001-0.041,0.004-0.081,0.004-0.121V133.935c0-17.673-14.327-32-32-32c-17.675,0-32.001,14.326-32,32v134.877L156.562,111.307
	c-12.497-12.497-32.758-12.497-45.255,0c-12.496,12.497-12.496,32.758,0,45.255l157.505,157.505H133.934
	c-8.837,0-16.836,3.581-22.627,9.372s-9.373,13.791-9.372,22.628C101.934,363.739,116.261,378.066,133.935,378.066z"/>
</svg>
