<?xml version="1.0" encoding="utf-8"?>
<!-- Generator: Adobe Illustrator 16.0.2, SVG Export Plug-In . SVG Version: 6.00 Build 0)  -->
<!DOCTYPE svg PUBLIC "-//W3C//DTD SVG 1.1//EN" "http://www.w3.org/Graphics/SVG/1.1/DTD/svg11.dtd">
<svg version="1.1" id="圖層_1" xmlns="http://www.w3.org/2000/svg" xmlns:xlink="http://www.w3.org/1999/xlink" x="0px" y="0px"
	 width="480px" height="480px" viewBox="0 0 480 480" enable-background="new 0 0 480 480" xml:space="preserve">
<path d="M293.741,443.741l150-150c0.028-0.028,0.054-0.058,0.082-0.086c0.856-0.859,1.692-1.738,2.507-2.637
	c0.409-0.451,0.794-0.916,1.19-1.374c0.412-0.478,0.831-0.947,1.231-1.435c0.482-0.587,0.94-1.188,1.402-1.785
	c0.29-0.374,0.587-0.742,0.87-1.122c0.488-0.657,0.953-1.327,1.419-1.996c0.236-0.34,0.479-0.675,0.71-1.02
	c0.463-0.688,0.901-1.388,1.339-2.087c0.218-0.349,0.44-0.693,0.653-1.046c0.414-0.688,0.807-1.385,1.197-2.083
	c0.218-0.388,0.439-0.772,0.649-1.165c0.354-0.66,0.689-1.328,1.023-1.997c0.227-0.453,0.456-0.905,0.674-1.363
	c0.289-0.61,0.561-1.226,0.833-1.842c0.237-0.536,0.476-1.071,0.701-1.613c0.226-0.548,0.437-1.099,0.65-1.65
	c0.241-0.623,0.483-1.247,0.709-1.879c0.172-0.482,0.33-0.969,0.492-1.454c0.234-0.704,0.469-1.407,0.684-2.12
	c0.13-0.432,0.247-0.867,0.369-1.301c0.216-0.765,0.43-1.53,0.622-2.305c0.1-0.403,0.187-0.81,0.28-1.215
	c0.185-0.799,0.367-1.599,0.526-2.406c0.081-0.414,0.147-0.83,0.223-1.245c0.143-0.795,0.286-1.591,0.404-2.395
	c0.07-0.478,0.121-0.958,0.182-1.437c0.095-0.74,0.194-1.478,0.268-2.224c0.063-0.642,0.1-1.285,0.146-1.928
	c0.042-0.592,0.098-1.179,0.127-1.774c0.123-2.504,0.123-5.012,0-7.516c-0.029-0.595-0.085-1.183-0.127-1.774
	c-0.047-0.643-0.084-1.286-0.146-1.927c-0.073-0.747-0.173-1.484-0.268-2.224c-0.061-0.479-0.111-0.958-0.182-1.436
	c-0.118-0.804-0.262-1.6-0.404-2.396c-0.075-0.415-0.142-0.831-0.223-1.244c-0.159-0.809-0.342-1.608-0.526-2.407
	c-0.094-0.405-0.181-0.812-0.28-1.215c-0.192-0.774-0.406-1.54-0.622-2.304c-0.122-0.434-0.239-0.869-0.369-1.301
	c-0.215-0.712-0.449-1.416-0.684-2.119c-0.162-0.486-0.32-0.972-0.492-1.455c-0.226-0.632-0.468-1.255-0.709-1.879
	c-0.214-0.551-0.425-1.103-0.65-1.649c-0.226-0.542-0.464-1.078-0.701-1.614c-0.272-0.616-0.544-1.231-0.833-1.841
	c-0.218-0.459-0.447-0.91-0.674-1.364c-0.334-0.669-0.669-1.336-1.023-1.997c-0.21-0.393-0.432-0.777-0.649-1.166
	c-0.391-0.698-0.783-1.395-1.197-2.083c-0.213-0.353-0.436-0.697-0.653-1.045c-0.438-0.7-0.876-1.399-1.339-2.087
	c-0.23-0.344-0.474-0.679-0.71-1.02c-0.466-0.669-0.931-1.338-1.419-1.996c-0.283-0.38-0.58-0.748-0.87-1.123
	c-0.462-0.598-0.92-1.198-1.402-1.785c-0.4-0.487-0.819-0.957-1.231-1.434c-0.396-0.458-0.781-0.923-1.19-1.374
	c-0.814-0.899-1.65-1.778-2.507-2.637c-0.028-0.028-0.054-0.058-0.082-0.086l-150-150c-29.68-29.68-77.801-29.68-107.48,0
	s-29.68,77.801,0,107.48l20.26,20.26H90.001c-41.974,0-76,34.026-76,76s34.026,76,76,76h116.52l-20.26,20.26
	c-14.84,14.84-22.26,34.29-22.26,53.74s7.42,38.9,22.26,53.74C215.94,473.421,264.062,473.421,293.741,443.741z M217.374,412.628
	c-6.249-6.248-9.373-14.438-9.373-22.627s3.124-16.379,9.373-22.627l95.372-95.373H90.001c-17.673,0-32-14.327-32-32
	s14.327-32,32-32h222.745l-95.372-95.373c-12.498-12.497-12.498-32.758,0-45.255c12.496-12.497,32.758-12.497,45.255,0l150,150
	c0.028,0.029,0.055,0.059,0.083,0.088c0.343,0.345,0.678,0.696,1.005,1.056c0.179,0.198,0.348,0.401,0.521,0.602
	c0.167,0.193,0.338,0.384,0.5,0.582c0.207,0.252,0.403,0.51,0.602,0.766c0.118,0.153,0.239,0.302,0.354,0.457
	c0.208,0.28,0.407,0.566,0.605,0.851c0.097,0.14,0.196,0.278,0.292,0.419c0.196,0.293,0.384,0.591,0.569,0.889
	c0.09,0.143,0.182,0.284,0.269,0.428c0.177,0.294,0.345,0.592,0.512,0.891c0.089,0.159,0.18,0.316,0.266,0.476
	c0.151,0.282,0.294,0.567,0.437,0.853c0.094,0.188,0.188,0.374,0.278,0.564c0.124,0.26,0.24,0.523,0.356,0.787
	c0.098,0.222,0.196,0.442,0.289,0.667c0.098,0.235,0.188,0.473,0.28,0.71c0.1,0.257,0.199,0.514,0.292,0.774
	c0.075,0.209,0.144,0.419,0.213,0.63c0.098,0.291,0.194,0.582,0.283,0.876c0.057,0.188,0.107,0.377,0.16,0.565
	c0.089,0.315,0.178,0.631,0.257,0.951c0.044,0.178,0.083,0.357,0.124,0.536c0.075,0.329,0.15,0.657,0.216,0.99
	c0.036,0.183,0.065,0.367,0.099,0.55c0.059,0.327,0.117,0.652,0.166,0.982c0.031,0.214,0.055,0.429,0.081,0.643
	c0.038,0.299,0.079,0.597,0.108,0.898c0.028,0.29,0.046,0.581,0.066,0.872c0.016,0.229,0.038,0.457,0.049,0.688
	c0.053,1.058,0.053,2.117,0,3.175c-0.011,0.229-0.033,0.455-0.049,0.684c-0.021,0.292-0.038,0.584-0.066,0.876
	c-0.029,0.3-0.07,0.597-0.107,0.894c-0.027,0.216-0.051,0.432-0.082,0.646c-0.049,0.329-0.107,0.653-0.165,0.978
	c-0.033,0.186-0.063,0.371-0.1,0.556c-0.065,0.331-0.14,0.657-0.215,0.984c-0.042,0.181-0.08,0.361-0.125,0.541
	c-0.079,0.318-0.167,0.633-0.256,0.947c-0.054,0.19-0.104,0.381-0.161,0.569c-0.089,0.293-0.186,0.583-0.282,0.873
	c-0.07,0.211-0.139,0.423-0.214,0.633c-0.093,0.26-0.192,0.516-0.291,0.771c-0.092,0.238-0.184,0.477-0.281,0.713
	c-0.093,0.224-0.191,0.443-0.289,0.664c-0.116,0.265-0.232,0.528-0.356,0.789c-0.09,0.189-0.185,0.376-0.278,0.563
	c-0.142,0.285-0.285,0.569-0.437,0.852c-0.086,0.161-0.178,0.32-0.268,0.48c-0.166,0.297-0.333,0.593-0.509,0.886
	c-0.089,0.146-0.182,0.29-0.272,0.436c-0.185,0.296-0.37,0.591-0.565,0.881c-0.098,0.146-0.2,0.288-0.301,0.432
	c-0.195,0.281-0.391,0.563-0.596,0.839c-0.121,0.162-0.247,0.318-0.371,0.479c-0.192,0.249-0.383,0.499-0.584,0.743
	c-0.176,0.214-0.359,0.42-0.539,0.628c-0.16,0.186-0.315,0.373-0.48,0.555c-0.356,0.394-0.722,0.778-1.098,1.154L262.629,412.628
	C250.132,425.125,229.87,425.125,217.374,412.628z"/>
</svg>
