<?xml version="1.0" encoding="utf-8"?>
<!-- Generator: Adobe Illustrator 16.0.2, SVG Export Plug-In . SVG Version: 6.00 Build 0)  -->
<!DOCTYPE svg PUBLIC "-//W3C//DTD SVG 1.1//EN" "http://www.w3.org/Graphics/SVG/1.1/DTD/svg11.dtd">
<svg version="1.1" id="圖層_1" xmlns="http://www.w3.org/2000/svg" xmlns:xlink="http://www.w3.org/1999/xlink" x="0px" y="0px"
	 width="480px" height="480px" viewBox="0 0 480 480" enable-background="new 0 0 480 480" xml:space="preserve">
<g>
	<path d="M240,480c-64.106,0-124.376-24.965-169.706-70.295C24.964,364.375,0,304.105,0,240c0-64.106,24.964-124.376,70.294-169.706
		C115.624,24.965,175.894,0,240,0s124.376,24.964,169.705,70.294C455.035,115.624,480,175.894,480,240
		c0,64.105-24.965,124.375-70.295,169.705S304.106,480,240,480z M240,60c-99.252,0-180,80.748-180,180s80.748,180,180,180
		c99.252,0,180-80.748,180-180S339.252,60,240,60z"/>
</g>
<path d="M150.754,350.459h199.705V150.754c0-16.568-13.432-30-30-30c-16.568,0-30,13.432-30,30v97.279L171.967,129.541
	c-11.716-11.716-30.711-11.716-42.426,0c-11.716,11.715-11.716,30.71,0,42.426l118.492,118.492h-97.28
	c-8.284,0-15.784,3.358-21.212,8.787c-5.429,5.43-8.787,12.93-8.787,21.213C120.754,337.027,134.186,350.459,150.754,350.459z"/>
</svg>
