<?xml version="1.0" encoding="utf-8"?>
<!-- Generator: Adobe Illustrator 16.0.2, SVG Export Plug-In . SVG Version: 6.00 Build 0)  -->
<!DOCTYPE svg PUBLIC "-//W3C//DTD SVG 1.1//EN" "http://www.w3.org/Graphics/SVG/1.1/DTD/svg11.dtd">
<svg version="1.1" id="圖層_1" xmlns="http://www.w3.org/2000/svg" xmlns:xlink="http://www.w3.org/1999/xlink" x="0px" y="0px"
	 width="480px" height="480px" viewBox="0 0 480 480" enable-background="new 0 0 480 480" xml:space="preserve">
<g>
	<path d="M240,480c-64.106,0-124.376-24.965-169.706-70.295C24.964,364.375,0,304.105,0,240c0-64.106,24.964-124.376,70.294-169.706
		C115.624,24.965,175.894,0,240,0s124.376,24.964,169.705,70.294C455.035,115.624,480,175.894,480,240
		c0,64.105-24.965,124.375-70.295,169.705S304.106,480,240,480z M240,60c-99.252,0-180,80.748-180,180s80.748,180,180,180
		c99.252,0,180-80.748,180-180S339.252,60,240,60z"/>
</g>
<path d="M120.754,150.754v199.705h199.705c16.568,0,30-13.432,30-30s-13.432-30-30-30H223.18l118.492-118.492
	c11.716-11.715,11.716-30.711,0-42.426c-11.715-11.716-30.711-11.716-42.426,0L180.754,248.033v-97.279
	c0-8.284-3.358-15.784-8.787-21.213c-5.43-5.43-12.93-8.787-21.213-8.787C134.186,120.754,120.754,134.186,120.754,150.754z"/>
</svg>
