<?xml version="1.0" encoding="utf-8"?>
<!-- Generator: Adobe Illustrator 16.0.2, SVG Export Plug-In . SVG Version: 6.00 Build 0)  -->
<!DOCTYPE svg PUBLIC "-//W3C//DTD SVG 1.1//EN" "http://www.w3.org/Graphics/SVG/1.1/DTD/svg11.dtd">
<svg version="1.1" id="圖層_1" xmlns="http://www.w3.org/2000/svg" xmlns:xlink="http://www.w3.org/1999/xlink" x="0px" y="0px"
	 width="480px" height="480px" viewBox="0 0 480 480" enable-background="new 0 0 480 480" xml:space="preserve">
<path display="none" d="M443.74,186.26l-150-150c-0.028-0.028-0.058-0.054-0.086-0.082c-0.859-0.856-1.738-1.692-2.637-2.507
	c-0.451-0.409-0.916-0.794-1.374-1.19c-0.478-0.412-0.947-0.832-1.435-1.231c-0.587-0.483-1.188-0.94-1.785-1.403
	c-0.374-0.29-0.742-0.587-1.122-0.87c-0.657-0.489-1.327-0.954-1.996-1.419c-0.34-0.236-0.675-0.479-1.02-0.71
	c-0.688-0.462-1.388-0.901-2.087-1.338c-0.349-0.218-0.693-0.441-1.046-0.653c-0.688-0.415-1.385-0.807-2.083-1.198
	c-0.388-0.217-0.772-0.439-1.165-0.649c-0.66-0.354-1.328-0.689-1.997-1.023c-0.453-0.227-0.905-0.457-1.363-0.674
	c-0.61-0.289-1.226-0.561-1.842-0.833c-0.536-0.237-1.071-0.476-1.613-0.701c-0.548-0.226-1.099-0.437-1.65-0.65
	c-0.623-0.242-1.247-0.483-1.879-0.709c-0.482-0.172-0.969-0.33-1.454-0.492c-0.704-0.235-1.407-0.469-2.12-0.684
	c-0.432-0.13-0.867-0.247-1.301-0.37c-0.765-0.216-1.53-0.429-2.305-0.622c-0.403-0.1-0.81-0.187-1.215-0.281
	c-0.799-0.185-1.599-0.367-2.406-0.526c-0.414-0.081-0.83-0.147-1.245-0.222c-0.795-0.143-1.591-0.286-2.395-0.404
	c-0.478-0.07-0.958-0.121-1.437-0.182c-0.74-0.094-1.478-0.194-2.224-0.267c-0.642-0.063-1.285-0.1-1.928-0.146
	c-0.592-0.042-1.179-0.098-1.774-0.127c-2.504-0.124-5.012-0.124-7.516,0c-0.595,0.029-1.183,0.084-1.774,0.127
	c-0.643,0.046-1.286,0.083-1.927,0.146c-0.747,0.073-1.484,0.173-2.224,0.267c-0.479,0.061-0.958,0.112-1.436,0.182
	c-0.804,0.118-1.6,0.262-2.396,0.404c-0.415,0.075-0.831,0.141-1.244,0.222c-0.809,0.159-1.608,0.342-2.407,0.526
	c-0.405,0.094-0.812,0.181-1.215,0.281c-0.774,0.192-1.54,0.406-2.304,0.622c-0.434,0.123-0.869,0.239-1.301,0.37
	c-0.712,0.215-1.416,0.449-2.119,0.684c-0.486,0.162-0.972,0.32-1.455,0.492c-0.632,0.226-1.255,0.467-1.879,0.709
	c-0.551,0.213-1.103,0.424-1.649,0.65c-0.542,0.225-1.078,0.464-1.614,0.701c-0.616,0.272-1.231,0.543-1.841,0.833
	c-0.459,0.218-0.91,0.448-1.364,0.674c-0.669,0.333-1.336,0.668-1.997,1.023c-0.393,0.21-0.777,0.432-1.166,0.649
	c-0.698,0.391-1.395,0.783-2.083,1.198c-0.353,0.212-0.697,0.436-1.045,0.653c-0.7,0.437-1.399,0.876-2.087,1.338
	c-0.344,0.231-0.679,0.474-1.02,0.71c-0.669,0.465-1.338,0.93-1.996,1.419c-0.38,0.283-0.748,0.58-1.123,0.87
	c-0.598,0.462-1.198,0.92-1.785,1.403c-0.487,0.4-0.957,0.819-1.434,1.231c-0.458,0.396-0.923,0.781-1.374,1.19
	c-0.899,0.815-1.778,1.65-2.637,2.507c-0.028,0.028-0.058,0.054-0.086,0.082l-150,150c-29.68,29.68-29.68,77.801,0,107.48
	s77.801,29.68,107.48,0L164,273.48V390c0,41.974,34.026,76,76,76s76-34.026,76-76V273.48l20.26,20.26
	C351.1,308.58,370.55,316,390,316s38.9-7.42,53.74-22.26C473.42,264.061,473.42,215.94,443.74,186.26z"/>
<path d="M101.934,133.934v212.125c0,0.531,0.015,1.062,0.04,1.592c0.012,0.246,0.035,0.488,0.053,0.732
	c0.021,0.274,0.036,0.55,0.063,0.825c0.03,0.314,0.072,0.626,0.112,0.938c0.025,0.201,0.047,0.4,0.076,0.601
	c0.05,0.341,0.11,0.678,0.172,1.015c0.03,0.173,0.058,0.345,0.092,0.518c0.067,0.344,0.145,0.684,0.224,1.022
	c0.038,0.168,0.074,0.335,0.115,0.501c0.083,0.332,0.174,0.659,0.267,0.986c0.05,0.177,0.097,0.354,0.15,0.529
	c0.093,0.306,0.192,0.608,0.293,0.91c0.066,0.199,0.132,0.397,0.202,0.596c0.097,0.271,0.201,0.54,0.306,0.81
	c0.087,0.226,0.173,0.45,0.266,0.674c0.098,0.236,0.201,0.47,0.305,0.703c0.111,0.251,0.222,0.502,0.34,0.751
	c0.096,0.202,0.197,0.4,0.296,0.6c0.137,0.273,0.273,0.547,0.418,0.816c0.094,0.174,0.192,0.344,0.289,0.517
	c0.159,0.285,0.319,0.569,0.488,0.851c0.096,0.159,0.196,0.313,0.295,0.471c0.178,0.285,0.356,0.568,0.544,0.849
	c0.104,0.156,0.215,0.309,0.322,0.463c0.188,0.271,0.377,0.541,0.574,0.808c0.13,0.175,0.267,0.344,0.399,0.516
	c0.184,0.236,0.365,0.475,0.556,0.708c0.187,0.227,0.381,0.445,0.573,0.666c0.15,0.173,0.295,0.349,0.448,0.518
	c0.711,0.785,1.46,1.534,2.245,2.245c0.171,0.155,0.348,0.301,0.521,0.452c0.221,0.191,0.438,0.385,0.664,0.569
	c0.233,0.192,0.474,0.374,0.712,0.559c0.17,0.133,0.338,0.268,0.512,0.397c0.267,0.198,0.539,0.387,0.812,0.576
	c0.153,0.106,0.304,0.216,0.458,0.319c0.282,0.189,0.567,0.368,0.853,0.548c0.155,0.097,0.31,0.195,0.467,0.291
	c0.282,0.17,0.568,0.331,0.854,0.491c0.171,0.096,0.341,0.193,0.513,0.286c0.271,0.146,0.545,0.282,0.82,0.419
	c0.197,0.1,0.395,0.2,0.596,0.295c0.249,0.118,0.501,0.229,0.754,0.342c0.232,0.103,0.465,0.206,0.7,0.304
	c0.225,0.093,0.45,0.18,0.676,0.267c0.269,0.104,0.537,0.208,0.809,0.304c0.198,0.071,0.396,0.137,0.596,0.203
	c0.303,0.101,0.604,0.201,0.911,0.294c0.175,0.053,0.35,0.1,0.524,0.148c0.329,0.093,0.659,0.185,0.991,0.268
	c0.164,0.041,0.329,0.076,0.493,0.113c0.342,0.08,0.686,0.157,1.031,0.226c0.168,0.033,0.336,0.06,0.504,0.091
	c0.342,0.062,0.684,0.122,1.029,0.174c0.191,0.028,0.383,0.048,0.573,0.072c0.322,0.041,0.644,0.085,0.968,0.116
	c0.254,0.025,0.51,0.039,0.765,0.058c0.265,0.021,0.527,0.044,0.794,0.058c0.485,0.023,0.971,0.035,1.457,0.036
	c0.041,0.001,0.081,0.004,0.121,0.004h212.132c17.673,0,32-14.327,32-32c0-17.675-14.326-32.001-32-32H211.189l157.504-157.505
	c12.497-12.496,12.497-32.758,0-45.255c-12.496-12.496-32.758-12.496-45.254,0.001L165.934,268.812V133.934
	c0-8.837-3.581-16.836-9.372-22.627s-13.791-9.373-22.628-9.373C116.261,101.934,101.934,116.261,101.934,133.934z"/>
</svg>
