<?xml version="1.0" encoding="iso-8859-1"?>
<!-- Generator: Adobe Illustrator 16.0.2, SVG Export Plug-In . SVG Version: 6.00 Build 0)  -->
<!DOCTYPE svg PUBLIC "-//W3C//DTD SVG 1.1 Tiny//EN" "http://www.w3.org/Graphics/SVG/1.1/DTD/svg11-tiny.dtd">
<svg version="1.1" baseProfile="tiny" id="&#x5716;&#x5C64;_1"
	 xmlns="http://www.w3.org/2000/svg" xmlns:xlink="http://www.w3.org/1999/xlink" x="0px" y="0px" width="480px" height="480px"
	 viewBox="0 0 480 480" xml:space="preserve">
<g id="&#x5716;&#x5C64;_1_1_">
</g>
<g id="&#x5716;&#x5C64;_2">
	<path d="M411.428,0H68.571C34.286,0,0,34.286,0,68.571v342.856C0,445.715,34.286,480,68.571,480h342.856
		C445.715,480,480,445.715,480,411.428V68.571C480,34.286,445.715,0,411.428,0z M238.492,156.655l84.854,84.853l-21.214,21.213
		l-84.853-84.853L238.492,156.655z M90,390V135.441l84.853,84.854l21.214-21.214l84.853,84.853l-21.214,21.215L344.559,390H90z
		 M344.558,220.294l-84.853-84.852l21.214-21.213l84.854,84.852L344.558,220.294z M386.984,177.868l-84.854-84.852l21.214-21.214
		l84.853,84.852L386.984,177.868z"/>
</g>
</svg>
