<?xml version="1.0" encoding="utf-8"?>
<!-- Generator: Adobe Illustrator 16.0.2, SVG Export Plug-In . SVG Version: 6.00 Build 0)  -->
<!DOCTYPE svg PUBLIC "-//W3C//DTD SVG 1.1//EN" "http://www.w3.org/Graphics/SVG/1.1/DTD/svg11.dtd">
<svg version="1.1" id="圖層_1" xmlns="http://www.w3.org/2000/svg" xmlns:xlink="http://www.w3.org/1999/xlink" x="0px" y="0px"
	 width="480px" height="480px" viewBox="0 0 480 480" enable-background="new 0 0 480 480" xml:space="preserve">
<path d="M346.066,57.936H133.935c-0.04,0-0.079,0.002-0.119,0.002c-1.213,0.002-2.426,0.033-3.637,0.092
	c-0.608,0.03-1.209,0.087-1.813,0.13c-0.629,0.047-1.258,0.082-1.885,0.144c-0.757,0.074-1.505,0.175-2.254,0.271
	c-0.47,0.059-0.94,0.109-1.409,0.178c-0.81,0.119-1.612,0.265-2.415,0.408c-0.407,0.073-0.815,0.138-1.223,0.219
	c-0.814,0.159-1.618,0.344-2.422,0.529c-0.401,0.093-0.802,0.179-1.202,0.277c-0.779,0.194-1.549,0.409-2.319,0.626
	c-0.428,0.12-0.856,0.235-1.283,0.365c-0.717,0.216-1.427,0.451-2.136,0.688c-0.48,0.16-0.963,0.317-1.44,0.487
	c-0.636,0.228-1.263,0.47-1.892,0.713c-0.547,0.212-1.094,0.422-1.636,0.646c-0.547,0.228-1.086,0.468-1.627,0.707
	c-0.611,0.27-1.224,0.54-1.83,0.827c-0.463,0.22-0.919,0.451-1.376,0.68c-0.664,0.333-1.327,0.664-1.983,1.017
	c-0.396,0.213-0.787,0.438-1.181,0.658c-0.693,0.389-1.386,0.778-2.069,1.19c-0.355,0.214-0.704,0.44-1.058,0.66
	c-0.695,0.435-1.39,0.871-2.073,1.329c-0.35,0.236-0.691,0.483-1.038,0.724c-0.663,0.461-1.327,0.922-1.979,1.407
	c-0.388,0.288-0.764,0.592-1.145,0.888c-0.591,0.456-1.183,0.907-1.762,1.383c-0.498,0.409-0.979,0.838-1.467,1.26
	c-0.448,0.389-0.902,0.764-1.344,1.164c-1.858,1.684-3.632,3.458-5.315,5.315c-0.399,0.441-0.775,0.896-1.165,1.344
	c-0.421,0.488-0.85,0.97-1.259,1.467c-0.477,0.58-0.927,1.172-1.384,1.762c-0.295,0.382-0.599,0.757-0.887,1.144
	c-0.485,0.652-0.945,1.316-1.407,1.979c-0.24,0.347-0.488,0.688-0.723,1.038c-0.459,0.684-0.896,1.379-1.33,2.074
	c-0.22,0.353-0.446,0.701-0.661,1.057c-0.411,0.684-0.802,1.377-1.189,2.069c-0.221,0.394-0.445,0.784-0.658,1.182
	c-0.353,0.655-0.685,1.318-1.016,1.981c-0.229,0.459-0.461,0.914-0.681,1.377c-0.287,0.606-0.557,1.218-0.827,1.83
	c-0.239,0.541-0.479,1.08-0.707,1.626c-0.225,0.544-0.434,1.091-0.646,1.638c-0.242,0.627-0.486,1.255-0.713,1.891
	c-0.17,0.479-0.327,0.959-0.487,1.44c-0.237,0.71-0.472,1.418-0.688,2.136c-0.13,0.427-0.245,0.855-0.365,1.283
	c-0.218,0.771-0.432,1.54-0.626,2.319c-0.099,0.4-0.185,0.801-0.277,1.201c-0.186,0.805-0.37,1.609-0.529,2.423
	c-0.08,0.406-0.146,0.815-0.219,1.224c-0.144,0.802-0.288,1.604-0.407,2.414c-0.069,0.47-0.119,0.938-0.18,1.409
	c-0.096,0.749-0.196,1.498-0.271,2.254c-0.062,0.628-0.097,1.256-0.143,1.885c-0.044,0.604-0.101,1.204-0.13,1.813
	c-0.061,1.212-0.091,2.425-0.092,3.638c0,0.04-0.004,0.079-0.004,0.119v212.132c0,41.974,34.027,76,76.001,75.999
	c41.974,0,76-34.026,76-76v-28.651l82.393,82.392c29.681,29.681,77.8,29.681,107.479,0c29.68-29.68,29.68-77.801,0-107.48
	l-82.392-82.391h28.651c20.987,0,39.987-8.508,53.74-22.26c13.754-13.754,22.261-32.754,22.261-53.74
	C422.067,91.961,388.04,57.936,346.066,57.936z M378.066,133.936c0,8.836-3.581,16.836-9.372,22.627s-13.791,9.373-22.628,9.371
	l-134.877,0.002l157.505,157.504c12.496,12.496,12.496,32.758,0,45.255c-12.497,12.497-32.758,12.497-45.255-0.001L165.935,211.189
	v134.877c0,17.674-14.326,32.001-32,32c-17.673,0.001-32-14.326-32-32V133.935c0-0.04,0.002-0.08,0.003-0.12
	c0.001-0.486,0.013-0.972,0.036-1.457c0.014-0.267,0.038-0.53,0.058-0.795c0.019-0.255,0.032-0.51,0.058-0.764
	c0.031-0.325,0.075-0.646,0.116-0.968c0.024-0.191,0.045-0.383,0.073-0.574c0.051-0.345,0.111-0.688,0.173-1.029
	c0.031-0.168,0.059-0.336,0.091-0.503c0.068-0.347,0.146-0.689,0.226-1.031c0.037-0.164,0.072-0.329,0.113-0.493
	c0.083-0.333,0.175-0.662,0.268-0.991c0.05-0.175,0.097-0.351,0.148-0.524c0.093-0.307,0.193-0.609,0.295-0.911
	c0.065-0.199,0.131-0.398,0.202-0.597c0.096-0.271,0.2-0.54,0.304-0.808c0.088-0.226,0.174-0.451,0.268-0.676
	c0.097-0.235,0.2-0.468,0.304-0.7c0.111-0.253,0.223-0.505,0.341-0.754c0.095-0.201,0.195-0.398,0.295-0.597
	c0.137-0.274,0.274-0.549,0.419-0.819c0.093-0.173,0.19-0.343,0.287-0.513c0.16-0.286,0.32-0.573,0.49-0.854
	c0.096-0.157,0.194-0.312,0.292-0.467c0.18-0.286,0.358-0.571,0.547-0.853c0.104-0.155,0.213-0.306,0.319-0.459
	c0.189-0.271,0.379-0.544,0.577-0.812c0.129-0.173,0.264-0.342,0.396-0.512c0.185-0.238,0.367-0.479,0.559-0.712
	c0.186-0.225,0.379-0.443,0.57-0.663c0.15-0.174,0.296-0.351,0.451-0.521c0.711-0.786,1.46-1.535,2.245-2.246
	c0.169-0.153,0.346-0.298,0.519-0.448c0.221-0.192,0.439-0.386,0.666-0.572c0.232-0.191,0.472-0.373,0.708-0.557
	c0.172-0.133,0.341-0.269,0.515-0.398c0.268-0.198,0.538-0.387,0.808-0.575c0.155-0.107,0.307-0.218,0.464-0.322
	c0.28-0.188,0.563-0.366,0.848-0.544c0.157-0.098,0.313-0.199,0.472-0.294c0.28-0.169,0.565-0.329,0.851-0.489
	c0.172-0.097,0.343-0.195,0.517-0.288c0.27-0.145,0.543-0.281,0.816-0.418c0.199-0.1,0.397-0.201,0.599-0.297
	c0.249-0.118,0.501-0.229,0.751-0.339c0.234-0.104,0.467-0.208,0.703-0.306c0.224-0.093,0.449-0.178,0.674-0.266
	c0.27-0.104,0.538-0.209,0.811-0.306c0.197-0.07,0.396-0.135,0.595-0.201c0.302-0.102,0.604-0.201,0.911-0.294
	c0.175-0.053,0.353-0.101,0.529-0.15c0.327-0.093,0.654-0.184,0.985-0.267c0.167-0.041,0.334-0.076,0.501-0.115
	c0.34-0.079,0.68-0.156,1.022-0.223c0.173-0.035,0.346-0.063,0.519-0.093c0.337-0.061,0.674-0.122,1.014-0.172
	c0.201-0.029,0.4-0.051,0.602-0.076c0.312-0.04,0.623-0.082,0.938-0.112c0.275-0.028,0.551-0.044,0.825-0.063
	c0.244-0.018,0.486-0.041,0.731-0.053c0.53-0.025,1.061-0.039,1.593-0.039h212.124C363.739,101.936,378.066,116.262,378.066,133.936
	z"/>
</svg>
