<?xml version="1.0" encoding="iso-8859-1"?>
<!-- Generator: Adobe Illustrator 16.0.2, SVG Export Plug-In . SVG Version: 6.00 Build 0)  -->
<!DOCTYPE svg PUBLIC "-//W3C//DTD SVG 1.1 Tiny//EN" "http://www.w3.org/Graphics/SVG/1.1/DTD/svg11-tiny.dtd">
<svg version="1.1" baseProfile="tiny" id="&#x5716;&#x5C64;_1"
	 xmlns="http://www.w3.org/2000/svg" xmlns:xlink="http://www.w3.org/1999/xlink" x="0px" y="0px" width="480px" height="480px"
	 viewBox="0 0 480 480" xml:space="preserve">
<g id="&#x5716;&#x5C64;_1_1_">
	<path d="M411.428,0H68.571C34.286,0,0,34.286,0,68.571v342.856C0,445.715,34.286,480,68.571,480h342.856
		C445.715,480,480,445.715,480,411.428V68.571C480,34.286,445.715,0,411.428,0z M390,390H135.441l84.853-84.854L107.157,192.01l0,0
		l-35.355-35.355l84.853-84.852l35.355,35.355l113.138,113.137L390,135.441V390z"/>
</g>
<g id="&#x5716;&#x5C64;_2" display="none">
	
		<rect x="131.05" y="76.047" transform="matrix(-0.7071 -0.7071 0.7071 -0.7071 146.0519 352.5904)" display="inline" stroke="#000000" stroke-miterlimit="10" width="30" height="139.999"/>
	
		<rect x="173.469" y="118.472" transform="matrix(-0.7071 -0.7071 0.7071 -0.7071 188.4671 455.009)" display="inline" stroke="#000000" stroke-miterlimit="10" width="30" height="139.999"/>
	
		<rect x="215.897" y="160.899" transform="matrix(-0.7071 -0.7071 0.7071 -0.7071 230.8929 557.4354)" display="inline" stroke="#000000" stroke-miterlimit="10" width="30" height="139.998"/>
</g>
</svg>
