<?xml version="1.0" encoding="utf-8"?>
<!-- Generator: Adobe Illustrator 16.0.2, SVG Export Plug-In . SVG Version: 6.00 Build 0)  -->
<!DOCTYPE svg PUBLIC "-//W3C//DTD SVG 1.1//EN" "http://www.w3.org/Graphics/SVG/1.1/DTD/svg11.dtd">
<svg version="1.1" id="圖層_1" xmlns="http://www.w3.org/2000/svg" xmlns:xlink="http://www.w3.org/1999/xlink" x="0px" y="0px"
	 width="480px" height="480px" viewBox="0 0 480 480" enable-background="new 0 0 480 480" xml:space="preserve">
<g>
	<path stroke="#000000" stroke-miterlimit="10" d="M226.618,216.015c14.921,15.462,25.073,35.911,27.963,58.747l68.864,6.276
		c1.527-5.843,3.641-11.431,6.268-16.7l-82.019-79.684L226.618,216.015z"/>
	<path stroke="#000000" stroke-miterlimit="10" d="M146.785,288.781l1.135-13.522c0.185-2.207,1.268-4.16,2.939-5.685l30.098-44.784
		c-7.221-2.875-15.052-4.466-23.244-4.466c-35.978,0-65.143,30.387-65.143,67.871c0,37.482,29.165,67.87,65.143,67.87
		c30.155,0,55.513-21.353,62.935-50.332l-61.736-5.627C151.745,299.452,146.315,294.383,146.785,288.781z"/>
	<path stroke="#000000" stroke-miterlimit="10" d="M220.908,271.692c-2.444-10.189-7.099-19.461-13.401-27.24l-16.477,24.517
		L220.908,271.692z"/>
	<path stroke="#000000" stroke-miterlimit="10" d="M390,30H90c-30,0-60,30-60,60v300c0,30,30,60,60,60h300c30,0,60-30,60-60V90
		C450,60,420,30,390,30z M420,250.019c-5.633-2.065-11.688-3.198-18-3.198c-11.81,0-22.729,3.941-31.639,10.612l33.097,32.155
		c1.548,1.504,2.644,3.294,3.289,5.162c0.596,1.311,0.876,2.722,0.754,4.17l-1.136,13.523c-0.471,5.601-6.663,9.611-13.83,8.957
		l-43.122-3.931c6.01,24.419,27.274,42.468,52.587,42.468c6.312,0,12.367-1.133,18-3.197v29.384c-5.79,1.365-11.813,2.094-18,2.094
		c-41.215,0-75.257-31.91-80.66-73.307l-67.898-6.188C244.326,355.107,204.931,390,157.714,390C103.748,390,60,344.42,60,288.195
		c0-56.225,43.748-101.805,97.714-101.805c15.161,0,29.515,3.598,42.319,10.018l27.61-41.082c0.113-0.168,0.24-0.323,0.367-0.477
		c0.29-0.492,0.611-0.995,0.99-1.516l9.667-11c4.333-3.833,11.047-2.116,15.624,2.329l95.95,93.222
		c14.07-12.083,32.101-19.342,51.759-19.342c6.188,0,12.21,0.728,18,2.094V250.019z"/>
</g>
</svg>
