<?xml version="1.0" encoding="utf-8"?>
<!-- Generator: Adobe Illustrator 16.0.2, SVG Export Plug-In . SVG Version: 6.00 Build 0)  -->
<!DOCTYPE svg PUBLIC "-//W3C//DTD SVG 1.1//EN" "http://www.w3.org/Graphics/SVG/1.1/DTD/svg11.dtd">
<svg version="1.1" id="圖層_1" xmlns="http://www.w3.org/2000/svg" xmlns:xlink="http://www.w3.org/1999/xlink" x="0px" y="0px"
	 width="480px" height="480px" viewBox="0 0 480 480" enable-background="new 0 0 480 480" xml:space="preserve">
<polygon stroke="#000000" stroke-miterlimit="10" points="180,60 300,60 330,120 150,120 "/>
<g>
	<path stroke="#000000" stroke-miterlimit="10" d="M390,120l-300,0c-40,0-60,20-60,60v180c0,40,20,60,60,60h300c40,0,60-20,60-60
		V180C450,140,430,120,390,120z M240,380c-60.751,0-110-49.249-110-110c0-60.751,49.249-110,110-110c60.751,0,110,49.249,110,110
		C350,330.751,300.751,380,240,380z"/>
</g>
</svg>
