<?xml version="1.0" encoding="utf-8"?>
<!-- Generator: Adobe Illustrator 16.0.2, SVG Export Plug-In . SVG Version: 6.00 Build 0)  -->
<!DOCTYPE svg PUBLIC "-//W3C//DTD SVG 1.1//EN" "http://www.w3.org/Graphics/SVG/1.1/DTD/svg11.dtd">
<svg version="1.1" id="圖層_1" xmlns="http://www.w3.org/2000/svg" xmlns:xlink="http://www.w3.org/1999/xlink" x="0px" y="0px"
	 width="480px" height="480px" viewBox="0 0 480 480" enable-background="new 0 0 480 480" xml:space="preserve">
<g>
	<path stroke="#000000" stroke-miterlimit="10" d="M254.167,164.546c-54.769,0-99.167,44.161-99.167,98.636
		c0,54.476,44.398,98.637,99.167,98.637c54.768,0,99.166-44.161,99.166-98.637C353.333,208.707,308.935,164.546,254.167,164.546z
		 M254.167,333.637c-39.121,0-70.833-31.543-70.833-70.455c0-38.91,31.712-70.455,70.833-70.455
		c39.119,0,70.833,31.544,70.833,70.455C325,302.094,293.286,333.637,254.167,333.637z"/>
	<path stroke="#000000" stroke-miterlimit="10" d="M390,30H90c-30,0-60,30-60,60v300c0,30,30,60,60,60h300c30,0,60-30,60-60V90
		C450,60,420,30,390,30z M410,390H70V136.364h75.556l-56.667,0v-28.182h56.667v28.183H155L211.667,80h92.083l49.583,56.364H410V390z
		"/>
</g>
</svg>
