<?xml version="1.0" encoding="utf-8"?>
<!-- Generator: Adobe Illustrator 16.0.2, SVG Export Plug-In . SVG Version: 6.00 Build 0)  -->
<!DOCTYPE svg PUBLIC "-//W3C//DTD SVG 1.1//EN" "http://www.w3.org/Graphics/SVG/1.1/DTD/svg11.dtd">
<svg version="1.1" xmlns="http://www.w3.org/2000/svg" xmlns:xlink="http://www.w3.org/1999/xlink" x="0px" y="0px" width="480px"
	 height="480px" viewBox="0 0 480 480" enable-background="new 0 0 480 480" xml:space="preserve">
<g id="圖層_1">
	<path d="M439.877,136.519l24.377-24.48L452.065,99.8c-23.521-23.621-53.827-38.365-90.074-43.825
		c-27.667-4.168-58.626-2.516-87.178,4.652c-23.371,5.867-56.806,16.425-88.797,41.446c24.382-30.037,58.56-50.45,102.904-61.583
		c44.314-11.123,105.543-9.066,144.513,30.065l12.188,12.24L470,58.317l-12.188-12.24c-23.521-23.62-53.827-38.365-90.073-43.824
		c-27.666-4.168-58.629-2.515-87.178,4.652c-26.319,6.607-65.403,19.146-100.812,51.61c-15.418,14.136-28.452,30.594-39.097,49.274
		c-2.496-15.126-1.062-33.93,4.341-56.335l4.058-16.822l-33.506-8.149l-4.058,16.823c-12.906,53.516-4.673,87.085,9.973,108.116
		c-4.994,15.192-8.816,31.438-11.456,48.717c-13.038-14.007-20.346-37.767-21.786-71.029l-0.749-17.293l-34.442,1.503l0.749,17.293
		c2.881,66.532,27.411,96.426,52.181,109.514l-0.428,6.004c-1.135,6.432-2.1,13.01-2.896,19.738
		c-22.23-5.465-40.096-28.135-53.205-67.627l-5.451-16.421l-32.706,10.948l5.451,16.421c21.709,65.398,54.984,86.646,83.006,91.449
		l-0.037,0.527l34.387,2.465l1.228-17.266c5.903-82.991,36.724-139.509,93.777-171.268c-3.369,4.376-6.619,9.015-9.731,13.926
		c-24.527,38.706-38.036,89.819-38.036,143.93c0,54.109,13.508,105.223,38.036,143.928c26.066,41.133,61.53,63.785,99.862,63.785
		s73.798-22.652,99.865-63.785c24.526-38.705,38.035-89.818,38.035-143.928c0-54.11-13.509-105.225-38.035-143.93
		c-5.876-9.273-12.234-17.596-18.989-24.942c9.955,5.204,19.287,11.852,27.598,20.197L439.877,136.519z M342.198,307.572
		c-21.697,0-45.966-41.947-45.966-98.087c0-56.139,24.269-98.087,45.966-98.087c21.698,0,45.967,41.948,45.967,98.087
		C388.165,265.625,363.896,307.572,342.198,307.572z"/>
</g>
<g id="圖層_3">
</g>
</svg>
