<?xml version="1.0" encoding="utf-8"?>
<!-- Generator: Adobe Illustrator 16.0.2, SVG Export Plug-In . SVG Version: 6.00 Build 0)  -->
<!DOCTYPE svg PUBLIC "-//W3C//DTD SVG 1.1//EN" "http://www.w3.org/Graphics/SVG/1.1/DTD/svg11.dtd">
<svg version="1.1" id="圖層_1" xmlns="http://www.w3.org/2000/svg" xmlns:xlink="http://www.w3.org/1999/xlink" x="0px" y="0px"
	 width="480px" height="480px" viewBox="0 0 480 480" enable-background="new 0 0 480 480" xml:space="preserve">
<path stroke="#000000" stroke-miterlimit="10" d="M390,30H90c-30,0-60,30-60,60v300c0,30,30,60,60,60h300c30,0,60-30,60-60V90
	C450,60,420,30,390,30z M386.619,140.96c-9.614-0.417-13.176-0.719-20.722-0.167c-7.196,0.526-24.084,1.47-27.234,3.967
	c-3.15,2.501-5.385,6.453-6.695,11.853c-0.658,2.973-0.051,19.586-0.051,29.176l48.333,0.084v60.377l-48.333-0.083l0.231,143.5
	l-59.452,0.166l-0.231-143.5h-41.131v-60.378h41.131v-9.725c0-8.779-0.017-28.771,1.823-39.307
	c1.837-10.536,5.282-19.146,10.337-25.833c5.052-6.686,12.141-12.086,21.267-16.208c9.122-4.119,13.1-6.013,30.691-6.013
	c14.045,0,26.432,1.382,53.211,4.757L386.619,140.96z"/>
</svg>
