<?xml version="1.0" encoding="utf-8"?>
<!-- Generator: Adobe Illustrator 16.0.2, SVG Export Plug-In . SVG Version: 6.00 Build 0)  -->
<!DOCTYPE svg PUBLIC "-//W3C//DTD SVG 1.1//EN" "http://www.w3.org/Graphics/SVG/1.1/DTD/svg11.dtd">
<svg version="1.1" id="圖層_1" xmlns="http://www.w3.org/2000/svg" xmlns:xlink="http://www.w3.org/1999/xlink" x="0px" y="0px"
	 width="480px" height="480px" viewBox="0 0 480 480" enable-background="new 0 0 480 480" xml:space="preserve">
<ellipse cx="240" cy="75" rx="90" ry="75"/>
<ellipse cx="240" cy="435" rx="60" ry="45"/>
<path d="M143.729,136.758c-42.147,26.531-83.735,80.967-83.735,143.82C59.994,341.666,57.653,430,110,430c10,0,20,0,35,0v-16.793
	c0-24.883,37.085-50.202,85-53.207l1-180C192.923,177.18,159.739,158.904,143.729,136.758z"/>
<path d="M336.699,137.032C320.838,159.491,288.42,177.155,250,180v180c47.912,3.005,84.996,28.324,84.996,53.207V430
	C350,430,360,430,370,430c52.345,0,50-88.333,50-149.419C420,217.944,378.697,163.662,336.699,137.032z"/>
</svg>
