<?xml version="1.0" encoding="utf-8"?>
<!-- Generator: Adobe Illustrator 16.0.2, SVG Export Plug-In . SVG Version: 6.00 Build 0)  -->
<!DOCTYPE svg PUBLIC "-//W3C//DTD SVG 1.1//EN" "http://www.w3.org/Graphics/SVG/1.1/DTD/svg11.dtd">
<svg version="1.1" id="圖層_1" xmlns="http://www.w3.org/2000/svg" xmlns:xlink="http://www.w3.org/1999/xlink" x="0px" y="0px"
	 width="480px" height="480px" viewBox="0 0 480 480" enable-background="new 0 0 480 480" xml:space="preserve">
<path d="M165.461,163.971h46.581v71.843h-46.581V420H67.497V235.813H31v-71.843h36.497v-11.572c0-10.445,1.118-21.938,3.361-34.474
	c2.24-12.537,6.442-22.783,12.606-30.738c6.16-7.957,14.804-14.383,25.932-19.287c11.124-4.901,27.41-7.353,48.862-7.353
	c17.127,0,42.019,2.012,74.674,6.027l-10.805,59.306c-11.687-1.928-21.13-2.893-28.333-2.893c-8.805,0-15.127,1.488-18.969,4.46
	c-3.842,2.975-6.565,7.677-8.164,14.103C165.859,145.087,165.461,152.56,165.461,163.971z"/>
<g display="none">
	<rect x="290" y="163.971" display="inline" width="10" height="256.029"/>
	<rect x="270" y="163.971" display="inline" width="10" height="256.029"/>
	<rect x="310" y="163.971" display="inline" width="10" height="256.029"/>
	<path display="inline" d="M430,217.327l10-23.11v-27.08c-3.344-1.381-6.703-2.6-10-3.649V217.327z"/>
	<rect x="330" y="163.971" display="inline" width="10" height="256.029"/>
	<path display="inline" d="M420,160.764c-3.576-0.808-6.943-1.377-10-1.714v79.102c2.378,0.644,5.315,1.7,9.496,3.449l0.504-1.165
		V160.764z"/>
	<path display="inline" d="M400,158.897c-3.115,0.283-6.527,0.812-10,1.508v77.469c2.682-0.466,5.663-0.698,9.104-0.698
		c0.311,0,0.603-0.001,0.896-0.002V158.897z"/>
	<path display="inline" d="M380,162.828c-3.65,1.034-7.082,2.177-10,3.336v83.493c0.668-0.739,1.379-1.477,2.155-2.214
		c2.631-2.495,5.147-4.486,7.845-6.036V162.828z"/>
	<path display="inline" d="M360,171.229c-3.574,2.288-6.912,5.051-10,8.473v123.021c2.04-14.835,4.952-23.941,9.781-34.896
		c0.074-0.168,0.146-0.334,0.219-0.502V171.229z"/>
	<rect x="249.019" y="163.971" display="inline" width="10.981" height="256.029"/>
</g>
<g>
	<path d="M359.146,420.667H239.933V132.472h113.093l0.007,7.893c0.29-0.18,0.582-0.359,0.876-0.539l1.023-0.629
		c9.213-5.672,21.002-11.598,38.583-12.538c2.517-0.135,4.739-0.2,6.793-0.2c14.22,0,25.784,3.361,39.916,11.602l9.613,5.606
		l-25.046,105.167l-16.655-7.733c-5.362-2.489-11.413-2.861-14.543-2.861c-2.69,0-4.511,0.26-5.168,0.372
		c-5.232,0.889-9.869,6.439-17.116,17.05c-7.888,11.547-12.162,25.079-12.162,63.455V420.667z M269.933,390.667h59.214v-71.551
		c0-41.062,4.388-61.344,17.39-80.376c7.644-11.191,18.112-26.519,36.862-29.705c3.063-0.521,6.588-0.796,10.194-0.796
		c2.799,0,6.17,0.164,9.866,0.677l11.855-49.781c-5.558-2.146-10.052-2.677-15.007-2.677c-1.515,0-3.213,0.052-5.191,0.157
		c-10.23,0.547-17.175,3.645-24.455,8.127l-1.08,0.663c-6.621,4.057-10.268,6.292-18.452,20.798l-28.017,49.662l-0.062-73.394
		h-53.118V390.667z"/>
</g>
</svg>
