<?xml version="1.0" encoding="utf-8"?>
<!-- Generator: Adobe Illustrator 16.0.2, SVG Export Plug-In . SVG Version: 6.00 Build 0)  -->
<!DOCTYPE svg PUBLIC "-//W3C//DTD SVG 1.1//EN" "http://www.w3.org/Graphics/SVG/1.1/DTD/svg11.dtd">
<svg version="1.1" id="圖層_1" xmlns="http://www.w3.org/2000/svg" xmlns:xlink="http://www.w3.org/1999/xlink" x="0px" y="0px"
	 width="480px" height="480px" viewBox="0 0 480 480" enable-background="new 0 0 480 480" xml:space="preserve">
<path stroke="#000000" stroke-miterlimit="10" d="M390,30H90c-30,0-60,30-60,60v300c0,30,30,60,60,60h300c30,0,60-30,60-60V90
	C450,60,420,30,390,30z M150,390h-50l20-300l30-0.606V390z M180,390V89.394L210,90l20,300H180z M360,244.872V400h-40V244.872
	c-23.303-12.356-40-45.686-40-84.872c0-49.706,26.863-90,60-90s60,40.294,60,90C400,199.186,383.303,232.516,360,244.872z"/>
</svg>
