<?xml version="1.0" encoding="utf-8"?>
<!-- Generator: Adobe Illustrator 16.0.2, SVG Export Plug-In . SVG Version: 6.00 Build 0)  -->
<!DOCTYPE svg PUBLIC "-//W3C//DTD SVG 1.1//EN" "http://www.w3.org/Graphics/SVG/1.1/DTD/svg11.dtd">
<svg version="1.1" id="圖層_1" xmlns="http://www.w3.org/2000/svg" xmlns:xlink="http://www.w3.org/1999/xlink" x="0px" y="0px"
	 width="480px" height="480px" viewBox="0 0 480 480" enable-background="new 0 0 480 480" xml:space="preserve">
<path stroke="#000000" stroke-miterlimit="10" d="M255.399,143.089c-26.036-22.066-53.783-31.96-61.975-22.097
	c-8.194,9.86,6.272,35.744,32.307,57.81c26.037,22.068,53.785,31.961,61.977,22.1C295.899,191.041,281.437,165.157,255.399,143.089z
	 M229.225,141.333c-1.476,8.453-9.455,14.097-17.823,12.606c-8.367-1.491-13.955-9.549-12.479-18.003
	c1.476-8.452,9.455-14.095,17.823-12.604C225.113,124.822,230.7,132.882,229.225,141.333z"/>
<path stroke="#000000" stroke-miterlimit="10" d="M202.265,305.71c-10.09,10.51-14.296,22.385-9.395,26.528
	c4.904,4.142,17.056-1.025,27.148-11.536c10.088-10.511,14.293-22.388,9.391-26.526C224.508,290.037,212.354,295.199,202.265,305.71
	z"/>
<path stroke="#000000" stroke-miterlimit="10" d="M222.096,276.18c8.193-9.861-6.272-35.745-32.307-57.813
	c-26.037-22.066-53.783-31.96-61.977-22.098c-8.192,9.862,6.272,35.746,32.308,57.811
	C186.156,276.146,213.903,286.043,222.096,276.18z M163.613,216.612c-1.475,8.454-9.453,14.097-17.821,12.606
	c-8.368-1.489-13.957-9.548-12.48-18.002c1.476-8.452,9.454-14.096,17.822-12.607C159.501,200.101,165.089,208.161,163.613,216.612z
	"/>
<path stroke="#000000" stroke-miterlimit="10" d="M390,30H90c-30,0-60,30-60,60v300c0,30,30,60,60,60h300c30,0,60-30,60-60V90
	C450,60,420,30,390,30z M350.377,414.686c-2.385,0-4.742-0.111-7.064-0.329C318.607,424.41,291.358,430,262.712,430
	C150.757,430,60,344.867,60,239.849c0-105.018,90.757-190.152,202.712-190.152c28.833,0,56.254,5.66,81.086,15.838v98.042
	c-5.963,0.026-14.861,4.917-22.567,12.945c-10.092,10.512-14.299,22.388-9.396,26.528c4.903,4.141,17.057-1.024,27.147-11.534
	c1.802-1.877,3.407-3.798,4.815-5.711l0.481,69.691L343.5,326l8.5-37l0.157-1.042c37.247,0.871,67.156,28.885,67.156,63.344
	C419.313,386.309,388.449,414.686,350.377,414.686z"/>
</svg>
