<?xml version="1.0" encoding="utf-8"?>
<!-- Generator: Adobe Illustrator 16.0.2, SVG Export Plug-In . SVG Version: 6.00 Build 0)  -->
<!DOCTYPE svg PUBLIC "-//W3C//DTD SVG 1.1//EN" "http://www.w3.org/Graphics/SVG/1.1/DTD/svg11.dtd">
<svg version="1.1" id="圖層_1" xmlns="http://www.w3.org/2000/svg" xmlns:xlink="http://www.w3.org/1999/xlink" x="0px" y="0px"
	 width="480px" height="480px" viewBox="0 0 480 480" enable-background="new 0 0 480 480" xml:space="preserve">
<path stroke="#000000" stroke-miterlimit="10" d="M150,360v102.536C177.795,473.789,208.17,480,240,480
	c88.833,0,166.388-48.266,207.885-120H150z"/>
<path stroke="#000000" stroke-miterlimit="10" d="M360,330h102.537C473.789,302.205,480,271.83,480,240
	c0-88.833-48.266-166.387-120-207.885V330z"/>
<path stroke="#000000" stroke-miterlimit="10" d="M330,192.12V17.464C302.205,6.212,271.83,0,240,0
	c-30.374,0-59.423,5.657-86.17,15.951L330,192.12z"/>
<path stroke="#000000" stroke-miterlimit="10" d="M212.932,127.949l-94.754-94.756C47.453,74.945,0,151.925,0,240
	c0,30.035,5.533,58.772,15.609,85.272L212.932,127.949z"/>
<path stroke="#000000" stroke-miterlimit="10" d="M120,275.734l-86.54,86.54c21.015,35.421,50.87,64.976,86.54,85.61V275.734z"/>
</svg>
