<?xml version="1.0" encoding="utf-8"?>
<!-- Generator: Adobe Illustrator 16.0.2, SVG Export Plug-In . SVG Version: 6.00 Build 0)  -->
<!DOCTYPE svg PUBLIC "-//W3C//DTD SVG 1.1//EN" "http://www.w3.org/Graphics/SVG/1.1/DTD/svg11.dtd">
<svg version="1.1" id="圖層_1" xmlns="http://www.w3.org/2000/svg" xmlns:xlink="http://www.w3.org/1999/xlink" x="0px" y="0px"
	 width="480px" height="480px" viewBox="0 0 480 480" enable-background="new 0 0 480 480" xml:space="preserve">
<path stroke="#000000" stroke-miterlimit="10" d="M390,30H90c-30,0-60,30-60,60v300c0,30,30,60,60,60h300c30,0,60-30,60-60V90
	C450,60,420,30,390,30z M240,184.667c19.33,0,35,15.67,35,35s-15.67,35-35,35s-35-15.669-35-35S220.67,184.667,240,184.667z
	 M201.111,349.563C90,349.563,90,360,90,360c0-104.396,22.697-163.794,68.092-197.374C146.694,178.868,140,198.651,140,220
	c0,55.229,44.771,100,100,100c55.229,0,100-44.771,100-100c0-44.246-28.737-81.774-68.563-94.953
	C306.016,121.035,345.534,120,390,120C390,203.479,390,349.563,201.111,349.563z"/>
</svg>
